<svg xmlns="http://www.w3.org/2000/svg" viewBox="0 0 24 24"><symbol xmlns="http://www.w3.org/2000/svg" viewBox="0 0 24 24" id="ccd98f64-de7b-4145-937f-f4258322e250"><path fill="#FFF" d="M8.68 11.83v4.35h6.58v-4.35zm-.83-2.01V11h8.3V9.82z"></path><path d="M8.68 11.83v4.35h6.58v-4.35H8.68zM8.41 11h7.13a.55.55 0 0 1 .56.54v4.9a.55.55 0 0 1-.56.55H8.41a.55.55 0 0 1-.56-.55v-4.9a.55.55 0 0 1 .56-.54z"></path><path d="M7.85 9.82V11h8.3V9.82h-8.3zM7.56 9h8.88a.55.55 0 0 1 .56.55v1.69a.56.56 0 0 1-.56.55H7.56a.56.56 0 0 1-.56-.55V9.55A.55.55 0 0 1 7.56 9z"></path><path d="M12.48 3.3h-1.74l.57-.55a.4.4 0 0 0 0-.6.44.44 0 0 0-.62 0L9.36 3.41a.41.41 0 0 0 0 .6l1.33 1.28a.44.44 0 0 0 .62 0 .4.4 0 0 0 0-.6l-.57-.55H12a8.33 8.33 0 0 1 8.16 8.49A8.34 8.34 0 0 1 12 21.14a8.34 8.34 0 0 1-8.16-8.5.42.42 0 1 0-.84 0A9.19 9.19 0 0 0 12 22a9.19 9.19 0 0 0 9-9.36 9.2 9.2 0 0 0-8.52-9.34z"></path></symbol><use href="#ccd98f64-de7b-4145-937f-f4258322e250"></use></svg>