<svg xmlns="http://www.w3.org/2000/svg" viewBox="0 0 24 24"><symbol xmlns="http://www.w3.org/2000/svg" viewBox="0 0 24 24" id="2fb6cad0-3417-49f0-b7b8-afe4c197321f"><path d="M12.33 5.67h.02a4.94 4.94 0 0 1 4.98 5c0 .3.24.55.54.55.3 0 .55-.24.55-.55a6.03 6.03 0 0 0-6.06-6.1h-.03a.55.55 0 0 0 0 1.1zM19 15.28a2.07 2.07 0 0 0-.64-1.42 5.06 5.06 0 0 0-2.01-1.34c-.84-.24-1.62-.02-2.32.66l-.74.73c-.46-.25-1.35-.82-2.33-1.8l-.07-.07a11.16 11.16 0 0 1-1.8-2.33l.73-.74c.68-.7.9-1.48.66-2.32a5.06 5.06 0 0 0-1.34-2.01 2.07 2.07 0 0 0-2.89-.1h-.01l-.02.03c-.8.8-1.23 1.92-1.22 3.25.01 2.24 1.25 4.82 3.3 6.87l.01.01c.39.39.83.77 1.3 1.14a.55.55 0 1 0 .67-.87c-.44-.34-.85-.7-1.2-1.05-1.86-1.86-2.98-4.14-2.99-6.1 0-1.03.3-1.88.9-2.47.4-.36 1-.34 1.36.05 1.42 1.46 1.32 2.16.7 2.8L8.02 9.22c-.16.16-.2.4-.11.6.02.07.65 1.44 2.2 3l.07.06a11.02 11.02 0 0 0 2.98 2.2c.2.1.45.05.61-.1l1.02-1.02c.64-.63 1.33-.73 2.8.68.39.37.41.98.05 1.37-.59.59-1.43.9-2.44.9h-.02c-.8 0-1.74-.23-2.7-.64a.55.55 0 0 0-.43 1 8.1 8.1 0 0 0 3.12.73h.03a4.4 4.4 0 0 0 3.22-1.22l.02-.02.02-.01c.36-.4.55-.93.53-1.47z"></path><path d="M14.2 16.81c-.52-.13-1.54-.38-2.74-1.07l-.08-.05a10.5 10.5 0 0 1-2.3-1.77l-1.2-.21a.5.5 0 0 0 .05.59c.04.05 1 1.24 2.9 2.34l.09.05a8.54 8.54 0 0 0 3.59 1.25c.38 0 .28-.37-.32-1.13zm.9-8.91c-.58-.59-1.15-.74-1.42-.82a.55.55 0 0 0-.29 1.05c.22.07.56.16.94.54.37.37.47.7.53.92v.03a.55.55 0 1 0 1.06-.31l-.01-.03a3 3 0 0 0-.8-1.38z"></path></symbol><use href="#2fb6cad0-3417-49f0-b7b8-afe4c197321f"></use></svg>