<svg xmlns="http://www.w3.org/2000/svg" viewBox="0 0 67 24"><symbol xmlns="http://www.w3.org/2000/svg" fill="none" viewBox="0 0 67 24" id="2c81919b-99be-404d-b2d3-7cf7b90d503d"><path fill="#282828" d="M21.12 13.85c0 .55-.51.81-1.57.81h-2.07c-1.08 0-1.6-.26-1.6-.8V8h-1.76v5.95c0 .33.05.66.17.97a2.05 2.05 0 0 0 1.1 1.13 4.54 4.54 0 0 0 1.53.33h2.43c1.21 0 2.1-.2 2.66-.6a2.14 2.14 0 0 0 .86-1.84V8h-1.75v5.85ZM34.97 8a1.03 1.03 0 0 0-.93.46l-3.93 5.77-4.05-5.77a1.09 1.09 0 0 0-.92-.46.89.89 0 0 0-.87.62 1 1 0 0 0-.06.39v7.46h1.75v-5.15L29.1 16a1.15 1.15 0 0 0 1 .56c.18 0 .36-.05.53-.15.18-.1.34-.23.46-.41l3.1-4.61v5.09h1.75V9.09c.01-.29-.08-.57-.26-.78a.9.9 0 0 0-.72-.3Zm4 0h-1.75v8.41h1.75v-8.4Zm7.61.6a1.07 1.07 0 0 0-1.91 0l-4.69 7.84h2.06l1.25-2.22h4.61l1.28 2.22h1.97L46.58 8.6Zm.3 3.89H44.3l1.27-2.14 1.31 2.14ZM11.17 9.64l-.03 3.01c.04 1.53-.46 1.91-.88 2.08-.7.21-1.43.34-2.16.36H8V17h.12a11.9 11.9 0 0 0 2.12-.35c1.8-.39 2.61-1.62 2.61-4L12.91 8h-1.74v1.64Z"></path><path fill="#F90" d="M55.33 8.16a4.12 4.12 0 1 0 0 8.23 4.12 4.12 0 0 0 0-8.23Zm1.88 6.67-1.88-.98-1.88.98.36-2.09-1.51-1.48 2.1-.3.92-1.9.92 1.9 2.1.3-1.51 1.48.38 2.1Z"></path></symbol><use href="#2c81919b-99be-404d-b2d3-7cf7b90d503d"></use></svg>