<svg xmlns="http://www.w3.org/2000/svg" viewBox="0 0 90 13"><symbol xmlns="http://www.w3.org/2000/svg" viewBox="0 0 90 13" id="f2fa6c23-75b5-4c37-81ce-cf33db3a5d17"><path fill="#434343" d="M6.9 9.53c.18.18.4.32.63.43a4.76 4.76 0 0 0 1.56.33c.27.02.54.02.8.02h1.82c1.25 0 2.18-.2 2.74-.61.57-.4.83-1.01.83-1.85V1.63h-1.4v6.13c0 .72-.66 1.1-1.93 1.1H9.7c-1.3 0-1.95-.37-1.95-1.1V1.63H6.33v6.22c-.01.33.04.68.16.99.09.26.23.49.42.7Zm22 .85v-7.8a1 1 0 0 0-.22-.69.71.71 0 0 0-.58-.25.87.87 0 0 0-.78.42l-4.44 6.5-4.55-6.51a.95.95 0 0 0-.81-.42.7.7 0 0 0-.56.23.85.85 0 0 0-.21.64v7.88h1.43v-6.1l3.8 5.68a1.01 1.01 0 0 0 1.37.37c.15-.1.3-.23.39-.38l3.75-5.64v6.06h1.42Zm1.4-8.75h1.43v8.68H30.3zM42.44 10.35l-1.37-2.4H35.8l-1.34 2.42h-1.7l4.86-8.2c.21-.36.48-.54.83-.54.34 0 .61.18.84.54l4.75 8.18h-1.6Zm-2.23-3.83-1.81-3-1.79 3h3.6ZM3.55 6.46c.03 1.36-.31 2.14-1.1 2.46-.69.29-1.75.38-2.29.42l.02 1.62c.23-.01.86-.08 2.13-.36 1.82-.4 2.62-1.68 2.62-4.13L5 1.65H3.57V3.2l-.02 3.26Z"></path><path fill="#09F" d="M65.07 10.7V8.27l4.42.01c.43.01.84-.03 1.26-.12.3-.06.58-.2.8-.4.2-.2.36-.48.42-.77.08-.39.13-.78.12-1.19v-.7c0-.4-.04-.82-.13-1.22a1.6 1.6 0 0 0-1.22-1.26c-.42-.1-.83-.15-1.25-.14h-5.63v8.22h1.21Zm5.73-6.3c.04.22.07.45.07.69v.71c0 .23-.02.46-.06.67-.04.16-.1.3-.23.4a.88.88 0 0 1-.42.2 3 3 0 0 1-.65.07h-4.44V3.69h4.4a3 3 0 0 1 .65.06c.17.03.32.11.44.22.12.12.2.26.24.43Zm2.12 6.29 1.12-2.04h5.32l1.12 2.04h1.45l-4.29-7.75a1.47 1.47 0 0 0-.35-.45 1 1 0 0 0-1.15 0c-.14.13-.27.29-.35.45l-4.3 7.75h1.44Zm5.82-3.17h-4.09L76.7 3.8l2.04 3.72ZM84 10.7V6.73l-4.26-4.26h1.68l3.22 3.13 3.28-3.13h1.6l-4.3 4.27v3.96h-1.21ZM55.17 7.77c.2.2.44.38.69.54a7.13 7.13 0 0 1-4.32 4.17h-.05l-.05.02-.04-.01c-2.69-.82-5.08-3.64-5.2-8.26-.03-.95.03-1.9.18-2.85l.02-.12h.13c1.72 0 3.67-.3 4.87-.74l.04-.02.05.02c1.2.44 3.15.74 4.86.74h.13v.01c-.45.18-.87.45-1.23.78-1.37-.08-2.7-.31-3.72-.64l-.05-.02h-.05l.08 10.24c.7-.25 1.35-.64 1.9-1.16a7.1 7.1 0 0 0 1.76-2.7Z"></path><path fill="#F90" d="m60.4 3.07.16.25a3.25 3.25 0 0 1-.07 3.4l-.17.24-.2.23a3.45 3.45 0 0 1-.6.46l-.06.04-.07.03a3.12 3.12 0 0 1-4.07-1l-.04-.07a3.17 3.17 0 0 1 .43-3.91l.11-.1c.14-.14.3-.26.47-.36l.13-.08c.94-.5 2.05-.5 2.97 0l.07.04.06.04c.09.04.17.1.25.16l.07.06.16.13.1.11.3.33Zm-1.36 2.24 1.14-1.13-1.58-.22-.71-1.46-.71 1.46-1.58.22 1.14 1.13-.27 1.6 1.42-.75 1.42.75-.27-1.6Z"></path></symbol><use href="#f2fa6c23-75b5-4c37-81ce-cf33db3a5d17"></use></svg>