<svg xmlns="http://www.w3.org/2000/svg" viewBox="0 0 40 40"><symbol xmlns="http://www.w3.org/2000/svg" viewBox="0 0 40 40" id="811b2ecc-039e-4365-a765-6ae440f54c0b"><path fill="#F90" d="M36.02 40H3.98A3.98 3.98 0 0 1 0 36.02V3.98C0 1.78 1.78 0 3.98 0h32.04C38.22 0 40 1.78 40 3.98v32.04c0 2.2-1.78 3.98-3.98 3.98Z"></path><path fill="#fff" d="M20 7.11a12.9 12.9 0 1 0 0 25.79 12.9 12.9 0 0 0 0-25.8Zm5.87 20.9L20 24.92l-5.87 3.1 1.13-6.55-4.75-4.64 6.56-.95L20 9.92l2.95 5.96 6.57.95-4.75 4.64 1.1 6.53Z"></path></symbol><use href="#811b2ecc-039e-4365-a765-6ae440f54c0b"></use></svg>