<svg xmlns="http://www.w3.org/2000/svg" viewBox="0 0 24 24"><symbol xmlns="http://www.w3.org/2000/svg" viewBox="0 0 24 24" id="1ea3f5e9-d04f-490e-94e1-b3e8e4b43427"><path fill="#FFBA00" d="m9.77 18.84 2.3-5.3-3.24-.92 5.9-4.76-1.95 4.13 3.3.94-6.3 5.9zm3.85-13.46a1.25 1.25 0 1 1 2.33.9 1.25 1.25 0 0 1-2.33-.9zm6.22 2.98-3.06-5.8c-.25-.46-.8-.68-1.3-.5L9.32 4.34c-.29.1-.52.33-.63.62L4.07 17.02c-.21.55.06 1.17.61 1.38l4.6 1.76 4.6 1.77c.56.21 1.17-.07 1.38-.61L19.9 9.24c.11-.29.1-.61-.05-.88z"></path></symbol><use href="#1ea3f5e9-d04f-490e-94e1-b3e8e4b43427"></use></svg>