<svg xmlns="http://www.w3.org/2000/svg" viewBox="0 0 24 24"><symbol xmlns="http://www.w3.org/2000/svg" viewBox="0 0 24 24" id="e95128f6-f563-4b9a-b259-2a05bcdf82c2"><path d="M16.58 11.58a1.2 1.2 0 1 0 1.2 1.2 1.2 1.2 0 0 0-1.2-1.2zm-.64-.65a1.19 1.19 0 1 0-1.19 1.2 1.19 1.19 0 0 0 1.19-1.2zm.64-.65a1.2 1.2 0 1 0-1.19-1.2 1.2 1.2 0 0 0 1.19 1.2zM9.14 8.7H7.37v1.43H5.89v1.71h1.48v1.42h1.77v-1.42h1.49v-1.71H9.14V8.7z"></path><path d="M22.06 9.26C21.15 6.37 19 4 16.55 4a6.41 6.41 0 0 0-2.55.52h-.06a4.31 4.31 0 0 1-1.9.38 4.31 4.31 0 0 1-1.9-.38h-.06A6.36 6.36 0 0 0 7.46 4C5.06 4 2.86 6.37 2 9.26A20.12 20.12 0 0 0 1 16c.06 3.07 1.34 4.63 3.67 4.64A4 4 0 0 0 8 18.78l.58-.79A4 4 0 0 1 12 16a4 4 0 0 1 3.38 2s.43.6.58.79a4.06 4.06 0 0 0 3.36 1.85c2.33 0 3.62-1.57 3.67-4.6a20.5 20.5 0 0 0-.93-6.78zm-2.73 9.52a2.32 2.32 0 0 1-1.92-1.14l-.55-.76a5.7 5.7 0 0 0-9.71 0l-.55.76a2.31 2.31 0 0 1-1.93 1.14c-1.22 0-1.79-.68-1.83-2.79a18.4 18.4 0 0 1 .85-6.17c.69-2.21 2.33-4 3.75-4a4.71 4.71 0 0 1 2 .4h.06a6.58 6.58 0 0 0 2.5.55 6.53 6.53 0 0 0 2.54-.49h.06a4.74 4.74 0 0 1 2-.4c1.43 0 3.06 1.76 3.76 4a18.79 18.79 0 0 1 .82 6.12c-.05 2.1-.62 2.78-1.85 2.78z"></path><path d="M18.42 9.73a1.2 1.2 0 1 0 1.19 1.2 1.2 1.2 0 0 0-1.19-1.2z"></path></symbol><use href="#e95128f6-f563-4b9a-b259-2a05bcdf82c2"></use></svg>